<?xml version="1.0" encoding="UTF-8"?>
<svg version="1.1" xmlns="http://www.w3.org/2000/svg" width="528" height="461">
<path d="M0 0 C0.54897949 0.44988281 1.09795898 0.89976563 1.66357422 1.36328125 C18.93381076 15.5936691 36.28724852 30.96009944 50.10546875 48.609375 C51.93981207 50.92405152 53.87126774 53.08163243 55.875 55.25 C99.86538397 104.50197892 125.23440929 170.20832975 121.60668945 236.29833984 C119.28559612 271.11146608 109.1509833 309.02872243 86 336 C85.55043945 336.5249707 85.10087891 337.04994141 84.63769531 337.59082031 C58.49578496 367.80357656 22.91374789 381.71360406 -16 387 C-17.57974609 387.22429687 -17.57974609 387.22429687 -19.19140625 387.453125 C-52.60527798 392.02928689 -87.64800471 391.94051002 -121 387 C-122.25184082 386.81775879 -123.50368164 386.63551758 -124.79345703 386.44775391 C-181.10169153 378.0718428 -240.25136001 358.08052062 -276 311 C-276.85773777 309.91640129 -277.71582665 308.83308044 -278.57421875 307.75 C-284.32479495 300.34768455 -289.11913226 292.59420544 -293.625 284.375 C-294.14618408 283.4264917 -294.66736816 282.4779834 -295.2043457 281.50073242 C-297.45467325 277.29628201 -299.23689781 273.74596935 -300 269 C-300.99 268.67 -301.98 268.34 -303 268 C-303 267.01 -303 266.02 -303 265 C-303.55131125 263.18836851 -304.15747102 261.39321787 -304.79296875 259.609375 C-311.32210462 240.90734417 -316.45194293 222.38799417 -318.640625 202.66796875 C-318.84909577 200.03196681 -318.84909577 200.03196681 -320 198 C-320.10596942 196.27895254 -320.14878582 194.55385242 -320.16113281 192.82958984 C-320.17074036 191.74600189 -320.1803479 190.66241394 -320.19024658 189.54598999 C-320.19449646 188.36292267 -320.19874634 187.17985535 -320.203125 185.9609375 C-320.21167511 184.11950668 -320.21167511 184.11950668 -320.22039795 182.24087524 C-320.22987246 179.62299463 -320.23639159 177.00510197 -320.24023438 174.38720703 C-320.2466545 170.46760055 -320.28070296 166.54838868 -320.3125 162.62890625 C-320.40066924 142.00115469 -318.7362128 121.96806059 -314.25 101.8125 C-313.99250977 100.64452881 -313.73501953 99.47655762 -313.46972656 98.27319336 C-307.39409945 71.60935922 -296.86225884 46.44548558 -279.62109375 25.0234375 C-277.9779764 22.97251031 -276.42499511 20.87187626 -274.875 18.75 C-272.46420329 15.52700975 -270.0112291 12.67664809 -267 10 C-266.34 10 -265.68 10 -265 10 C-264.76925781 9.42507812 -264.53851563 8.85015625 -264.30078125 8.2578125 C-261.8140306 3.94147054 -257.44847281 1.266832 -253.57080078 -1.76025391 C-252.06881045 -2.94569172 -250.59414409 -4.16550605 -249.12109375 -5.38671875 C-176.73466213 -63.99424683 -73.99493136 -59.67825717 0 0 Z M-216.609375 80.27734375 C-219.84706 83.96470722 -222.12482652 87.47797671 -224 92 C-224.36480469 92.81726563 -224.72960937 93.63453125 -225.10546875 94.4765625 C-231.14934839 109.26988522 -231.83002136 126.32295538 -226.20703125 141.32421875 C-221.57891161 151.58396617 -212.84428896 158.70761021 -202.53515625 162.94921875 C-182.30198793 170.5114762 -160.56067653 172.76802667 -139.2449646 175.30895996 C-109.76639174 178.84376184 -109.76639174 178.84376184 -101 186 C-98.8785505 189.40127478 -98.68909475 192.03673836 -99.34375 196.0390625 C-100.5104566 199.52529293 -102.91577368 201.29521668 -106 203 C-136.00549957 216.63886344 -185.3800425 211.73978664 -215.76831055 200.67480469 C-218.86706954 199.49836078 -221.93496101 198.26207488 -225 197 C-226.66636166 196.33257132 -228.33289653 195.66557363 -230 195 C-229.59739052 212.21155528 -228.63553818 232.12970311 -215.375 244.8125 C-201.19800034 255.95157116 -182.29568393 259.09609768 -164.64453125 259.203125 C-163.86864151 259.21004868 -163.09275177 259.21697235 -162.29335022 259.22410583 C-159.79968155 259.24130784 -157.30622522 259.24769405 -154.8125 259.25 C-153.96262512 259.25133942 -153.11275024 259.25267883 -152.23712158 259.25405884 C-139.27221492 259.24962226 -126.72640599 258.66920875 -114 256 C-112.86949219 255.7834375 -111.73898437 255.566875 -110.57421875 255.34375 C-94.23755089 251.78400914 -79.73326868 244.04120369 -70.5625 229.76171875 C-63.30396608 216.56242047 -62.2807026 201.53816069 -65.96875 187.14453125 C-69.59102922 176.09932378 -76.54909117 169.81085051 -86.5625 164.375 C-103.45349108 156.53367233 -121.57008364 154.55949814 -139.85897827 152.25502014 C-141.8527342 152.00375859 -143.84604795 151.74917636 -145.83935547 151.49438477 C-148.36562595 151.17501295 -150.89325813 150.86615626 -153.42236328 150.57006836 C-178.85748811 147.39198525 -178.85748811 147.39198525 -186 139 C-188.63062411 134.51694284 -189.37873874 130.42986092 -188.5 125.3125 C-186.93794336 119.96617518 -184.45126413 116.56741579 -179.80078125 113.59375 C-165.60340852 105.92672297 -148.40192246 106.85789376 -132.66796875 107.0078125 C-131.80700089 107.01562744 -130.94603302 107.02344238 -130.05897522 107.03149414 C-126.54894721 107.06780626 -123.03922961 107.11013561 -119.52954102 107.17138672 C-97.67680655 107.56796399 -97.67680655 107.56796399 -78 99 C-70.85838482 91.21861513 -69.64781704 82.35427394 -69.6875 72.1875 C-69.67138672 71.34251953 -69.65527344 70.49753906 -69.63867188 69.62695312 C-69.63770508 68.40975586 -69.63770508 68.40975586 -69.63671875 67.16796875 C-69.63373779 66.43860107 -69.63075684 65.7092334 -69.62768555 64.95776367 C-70.11891696 62.37469173 -70.95110656 61.62638518 -73 60 C-75.30231104 59.4536921 -75.30231104 59.4536921 -77.91674805 59.3840332 C-78.92017746 59.32419754 -79.92360687 59.26436188 -80.95744324 59.20271301 C-82.59305962 59.12750679 -82.59305962 59.12750679 -84.26171875 59.05078125 C-85.39914017 58.98843796 -86.53656158 58.92609467 -87.70845032 58.86186218 C-90.13170132 58.73189184 -92.55532867 58.60878772 -94.97924805 58.49194336 C-98.60109287 58.31668127 -102.2212681 58.12035864 -105.84179688 57.91992188 C-165.36651028 54.07514763 -165.36651028 54.07514763 -216.609375 80.27734375 Z M-13 208 C-17.87140665 211.16007606 -21.79354207 215.1048644 -23.546875 220.765625 C-25.187679 228.85648612 -24.76980995 236.63909685 -20.61328125 243.83984375 C-16.69513409 249.08617638 -11.60597303 252.59402272 -5.1328125 253.8125 C2.7614683 254.50650271 8.86236473 253.1124178 15 248 C19.85775333 243.17932876 22.41166872 238.40914403 23.02734375 231.63671875 C22.96329403 225.46049619 21.61874817 218.60616073 17.875 213.5625 C12.71704344 208.96519089 8.01846896 205.8001069 1 206 C0.33613281 205.81308594 -0.32773437 205.62617188 -1.01171875 205.43359375 C-5.14868261 204.53142678 -9.21521084 206.38709754 -13 208 Z " fill="#FABE90" transform="translate(372,64)"/>
<path d="M0 0 C-9.24 0 -18.48 0 -28 0 C-19.96584891 -5.35610072 -8.04633163 -5.36422108 0 0 Z " fill="#D8D2CC" transform="translate(380,461)"/>
<path d="M0 0 C0.99 0.33 1.98 0.66 3 1 C2.34 1 1.68 1 1 1 C1 1.66 1 2.32 1 3 C0.113125 3.556875 -0.77375 4.11375 -1.6875 4.6875 C-6.97034722 8.16371314 -9.62080681 11.89678339 -10.9765625 18.01171875 C-11.76518357 21.99157622 -12.40739425 25.98666184 -13 30 C-15.63258959 25.49715371 -15.04945472 21.96408741 -14 17 C-13.14966912 14.54746673 -12.14440601 12.33856881 -11 10 C-10.34 10 -9.68 10 -9 10 C-8.61134766 9.11248047 -8.61134766 9.11248047 -8.21484375 8.20703125 C-6.91285907 5.84168931 -5.59509577 4.449083 -3.5625 2.6875 C-2.96566406 2.15511719 -2.36882812 1.62273437 -1.75390625 1.07421875 C-1.17511719 0.71972656 -0.59632813 0.36523438 0 0 Z " fill="#FCC898" transform="translate(360,269)"/>
<path d="M0 0 C0 0.33 0 0.66 0 1 C-1.18078125 1.13277344 -2.3615625 1.26554687 -3.578125 1.40234375 C-5.13543262 1.5805898 -6.69272342 1.75898293 -8.25 1.9375 C-9.41595703 2.06801758 -9.41595703 2.06801758 -10.60546875 2.20117188 C-11.73662109 2.33168945 -11.73662109 2.33168945 -12.890625 2.46484375 C-13.58188477 2.543396 -14.27314453 2.62194824 -14.98535156 2.70288086 C-16.98218881 2.94663029 -16.98218881 2.94663029 -18.78125 3.54101562 C-22.05727242 4.21871393 -25.28705016 4.0070018 -28.609375 3.87890625 C-29.69958954 3.84348976 -29.69958954 3.84348976 -30.81182861 3.80735779 C-33.12476558 3.73101128 -35.43734293 3.64686319 -37.75 3.5625 C-39.3215972 3.50925021 -40.89321176 3.45651002 -42.46484375 3.40429688 C-46.31012196 3.27543568 -50.15509651 3.13957873 -54 3 C-54 2.67 -54 2.34 -54 2 C-53.12899658 1.97494385 -52.25799316 1.9498877 -51.3605957 1.92407227 C-48.0634763 1.82773425 -44.76646394 1.72859441 -41.46948242 1.62768555 C-40.05480128 1.58493287 -38.64008795 1.5432298 -37.2253418 1.50268555 C-29.07649791 1.26837374 -20.96231663 0.91774707 -12.83789062 0.20507812 C-8.55701904 -0.10427598 -4.28904114 -0.08713628 0 0 Z " fill="#FEC895" transform="translate(346,450)"/>
<path d="M0 0 C0.33 0 0.66 0 1 0 C1.4959985 10.60885674 1.1196687 20.00153399 -3 30 C-3.66 30.33 -4.32 30.66 -5 31 C-4.32418477 24.91766294 -3.26361972 18.98685848 -2 13 C-1.34 13 -0.68 13 0 13 C0 8.71 0 4.42 0 0 Z " fill="#FCC796" transform="translate(309,260)"/>
<path d="M0 0 C0.99 0 1.98 0 3 0 C3 0.66 3 1.32 3 2 C10.59 2 18.18 2 26 2 C26 2.33 26 2.66 26 3 C13.46 3 0.92 3 -12 3 C-12 2.67 -12 2.34 -12 2 C-8.04 2 -4.08 2 0 2 C0 1.34 0 0.68 0 0 Z " fill="#FDC897" transform="translate(226,170)"/>
<path d="M0 0 C-1.32 0.33 -2.64 0.66 -4 1 C-4 1.66 -4 2.32 -4 3 C-8.96073422 4.32286246 -13.91111512 4.08893197 -19 4 C-13.5018812 0.33458746 -6.52793043 -0.34357529 0 0 Z " fill="#FCC698" transform="translate(207,121)"/>
<path d="M0 0 C-2.46301423 2.46301423 -4.27360036 2.76766521 -7.625 3.625 C-8.62789062 3.88539063 -9.63078125 4.14578125 -10.6640625 4.4140625 C-11.43492187 4.60742188 -12.20578125 4.80078125 -13 5 C-12 2 -12 2 -10.0390625 1.015625 C-9.24242187 0.76296875 -8.44578125 0.5103125 -7.625 0.25 C-6.83351562 -0.01296875 -6.04203125 -0.2759375 -5.2265625 -0.546875 C-3 -1 -3 -1 0 0 Z " fill="#FCC896" transform="translate(207,173)"/>
<path d="M0 0 C-0.66 0 -1.32 0 -2 0 C-2 0.66 -2 1.32 -2 2 C-5.67410785 3.17571451 -9.16929183 3.07366746 -13 3 C-8.83099908 0.22066605 -4.8978425 -1.63261417 0 0 Z " fill="#FCC797" transform="translate(395,441)"/>
<path d="M0 0 C4.83256305 0.41421969 6.82679218 2.46413986 10 6 C5.56909529 4.79157144 3.01887244 3.48331435 0 0 Z " fill="#FBC799" transform="translate(157,221)"/>
<path d="M0 0 C1.9375 0.375 1.9375 0.375 4 1 C4.33 1.66 4.66 2.32 5 3 C2.69 3 0.38 3 -2 3 C-1.34 2.01 -0.68 1.02 0 0 Z " fill="#E8E0D4" transform="translate(387,458)"/>
<path d="M0 0 C2.31 0 4.62 0 7 0 C7 0.33 7 0.66 7 1 C4.69 1 2.38 1 0 1 C0 0.67 0 0.34 0 0 Z " fill="#CFBFB3" transform="translate(189,460)"/>
<path d="M0 0 C1.98 0 3.96 0 6 0 C6 0.33 6 0.66 6 1 C4.02 1 2.04 1 0 1 C0 0.67 0 0.34 0 0 Z " fill="#F4ADAD" transform="translate(367,456)"/>
<path d="M0 0 C0.99 0.495 0.99 0.495 2 1 C2 1.66 2 2.32 2 3 C1.34 3 0.68 3 0 3 C0 2.01 0 1.02 0 0 Z " fill="#F0ECE8" transform="translate(0,458)"/>
<path d="M0 0 C0.33 0 0.66 0 1 0 C1 1.65 1 3.3 1 5 C0.67 5 0.34 5 0 5 C0 3.35 0 1.7 0 0 Z " fill="#FFFFFF" transform="translate(300,130)"/>
<path d="M0 0 C4 1 4 1 4 1 Z " fill="#FFFFFF" transform="translate(350,452)"/>
<path d="M0 0 C0.99 0.33 1.98 0.66 3 1 C2.01 1 1.02 1 0 1 C0 0.67 0 0.34 0 0 Z " fill="#FFFFDF" transform="translate(201,213)"/>
<path d="M0 0 C1 4 1 4 1 4 Z " fill="#FFD4D4" transform="translate(300,136)"/>
<path d="" fill="#FFB8B8" transform="translate(0,0)"/>
<path d="" fill="#FFC6C6" transform="translate(0,0)"/>
<path d="M0 0 C3 1 3 1 3 1 Z " fill="#FFFFFF" transform="translate(238,219)"/>
<path d="M0 0 C3 1 3 1 3 1 Z " fill="#FFFF80" transform="translate(193,126)"/>
<path d="M0 0 C3 1 3 1 3 1 Z " fill="#FF9C9C" transform="translate(265,15)"/>
<path d="M0 0 C3 1 3 1 3 1 Z " fill="#FFFFFF" transform="translate(237,15)"/>
<path d="" fill="#FFFFFF" transform="translate(0,0)"/>
<path d="M0 0 C2 1 2 1 2 1 Z " fill="#FFFFFF" transform="translate(359,451)"/>
<path d="" fill="#FF8080" transform="translate(0,0)"/>
<path d="" fill="#FFBFBF" transform="translate(0,0)"/>
<path d="" fill="#FFD4D4" transform="translate(0,0)"/>
<path d="M0 0 C2 1 2 1 2 1 Z " fill="#FFFFBF" transform="translate(255,221)"/>
<path d="" fill="#FF9595" transform="translate(0,0)"/>
<path d="" fill="#FFD4D4" transform="translate(0,0)"/>
<path d="M0 0 C2 1 2 1 2 1 Z " fill="#FFFFFF" transform="translate(292,125)"/>
<path d="M0 0 C2 1 2 1 2 1 Z " fill="#FFFFFF" transform="translate(287,125)"/>
<path d="M0 0 C2 1 2 1 2 1 Z " fill="#FFBFBF" transform="translate(245,15)"/>
<path d="" fill="#AAAAAA" transform="translate(0,0)"/>
<path d="" fill="#BFBFBF" transform="translate(0,0)"/>
<path d="" fill="#FFFFFF" transform="translate(0,0)"/>
<path d="" fill="#FFFFFF" transform="translate(0,0)"/>
<path d="" fill="#FFFFFF" transform="translate(0,0)"/>
<path d="" fill="#FFAAAA" transform="translate(0,0)"/>
<path d="" fill="#FFFFFF" transform="translate(0,0)"/>
<path d="" fill="#FFFFFF" transform="translate(0,0)"/>
<path d="" fill="#FFFFFF" transform="translate(0,0)"/>
<path d="" fill="#FFFFFF" transform="translate(0,0)"/>
<path d="" fill="#FFFFFF" transform="translate(0,0)"/>
<path d="" fill="#FFFF80" transform="translate(0,0)"/>
<path d="" fill="#FFFFFF" transform="translate(0,0)"/>
<path d="" fill="#FFFFFF" transform="translate(0,0)"/>
<path d="" fill="#FFFFFF" transform="translate(0,0)"/>
<path d="" fill="#FFAAAA" transform="translate(0,0)"/>
<path d="" fill="#FFFFFF" transform="translate(0,0)"/>
<path d="" fill="#FFFF80" transform="translate(0,0)"/>
<path d="" fill="#FFFFFF" transform="translate(0,0)"/>
<path d="" fill="#FFAAAA" transform="translate(0,0)"/>
<path d="" fill="#FFFFFF" transform="translate(0,0)"/>
<path d="" fill="#FFFFFF" transform="translate(0,0)"/>
<path d="" fill="#FFFFFF" transform="translate(0,0)"/>
<path d="" fill="#FFFFFF" transform="translate(0,0)"/>
<path d="" fill="#FFFFFF" transform="translate(0,0)"/>
<path d="" fill="#FFFFFF" transform="translate(0,0)"/>
<path d="" fill="#FFFFFF" transform="translate(0,0)"/>
<path d="" fill="#FFFFFF" transform="translate(0,0)"/>
<path d="" fill="#FFFFFF" transform="translate(0,0)"/>
<path d="" fill="#FFFFFF" transform="translate(0,0)"/>
<path d="" fill="#FFFFFF" transform="translate(0,0)"/>
<path d="" fill="#FFFFFF" transform="translate(0,0)"/>
<path d="" fill="#FFFFFF" transform="translate(0,0)"/>
<path d="" fill="#FF8080" transform="translate(0,0)"/>
<path d="" fill="#FFFFFF" transform="translate(0,0)"/>
<path d="" fill="#FFFFFF" transform="translate(0,0)"/>
<path d="" fill="#FFFF80" transform="translate(0,0)"/>
<path d="" fill="#FFFFFF" transform="translate(0,0)"/>
<path d="" fill="#FFFFFF" transform="translate(0,0)"/>
<path d="" fill="#FFFFFF" transform="translate(0,0)"/>
<path d="" fill="#FFFFFF" transform="translate(0,0)"/>
<path d="" fill="#FFFF80" transform="translate(0,0)"/>
<path d="" fill="#FFFFFF" transform="translate(0,0)"/>
<path d="" fill="#FFFFFF" transform="translate(0,0)"/>
<path d="" fill="#FFFFFF" transform="translate(0,0)"/>
<path d="" fill="#FFFFFF" transform="translate(0,0)"/>
<path d="" fill="#FFFFFF" transform="translate(0,0)"/>
<path d="" fill="#FFFFFF" transform="translate(0,0)"/>
<path d="" fill="#FFFFFF" transform="translate(0,0)"/>
<path d="" fill="#FFAAAA" transform="translate(0,0)"/>
<path d="" fill="#FFFF80" transform="translate(0,0)"/>
<path d="" fill="#FFFF80" transform="translate(0,0)"/>
<path d="" fill="#FFFFFF" transform="translate(0,0)"/>
<path d="" fill="#FFFFFF" transform="translate(0,0)"/>
<path d="" fill="#FFFF80" transform="translate(0,0)"/>
<path d="" fill="#FFFFFF" transform="translate(0,0)"/>
<path d="" fill="#FFAAAA" transform="translate(0,0)"/>
<path d="" fill="#FFFFFF" transform="translate(0,0)"/>
<path d="" fill="#FFFFFF" transform="translate(0,0)"/>
<path d="" fill="#FFFFFF" transform="translate(0,0)"/>
<path d="" fill="#FFFFFF" transform="translate(0,0)"/>
<path d="" fill="#FF8080" transform="translate(0,0)"/>
<path d="" fill="#FFFFFF" transform="translate(0,0)"/>
<path d="" fill="#FFFFFF" transform="translate(0,0)"/>
<path d="" fill="#FFFFFF" transform="translate(0,0)"/>
<path d="" fill="#FFFFFF" transform="translate(0,0)"/>
<path d="" fill="#FFFFFF" transform="translate(0,0)"/>
<path d="" fill="#FF8080" transform="translate(0,0)"/>
<path d="" fill="#FFFF80" transform="translate(0,0)"/>
<path d="" fill="#FFFF80" transform="translate(0,0)"/>
<path d="" fill="#FFFFFF" transform="translate(0,0)"/>
<path d="" fill="#FFFFFF" transform="translate(0,0)"/>
<path d="" fill="#FFFFFF" transform="translate(0,0)"/>
<path d="" fill="#FFFFFF" transform="translate(0,0)"/>
<path d="" fill="#FFFF80" transform="translate(0,0)"/>
<path d="" fill="#FFBF80" transform="translate(0,0)"/>
<path d="" fill="#FFFF80" transform="translate(0,0)"/>
<path d="" fill="#FFBF80" transform="translate(0,0)"/>
<path d="" fill="#FFFFFF" transform="translate(0,0)"/>
<path d="" fill="#FFBF80" transform="translate(0,0)"/>
<path d="" fill="#FF8080" transform="translate(0,0)"/>
<path d="" fill="#FFFFFF" transform="translate(0,0)"/>
<path d="" fill="#FFFFFF" transform="translate(0,0)"/>
<path d="" fill="#FF8080" transform="translate(0,0)"/>
<path d="" fill="#FFFFFF" transform="translate(0,0)"/>
<path d="" fill="#FFFFFF" transform="translate(0,0)"/>
<path d="" fill="#FFFFFF" transform="translate(0,0)"/>
<path d="" fill="#FFFFFF" transform="translate(0,0)"/>
<path d="" fill="#FFFFFF" transform="translate(0,0)"/>
<path d="" fill="#FFFFFF" transform="translate(0,0)"/>
<path d="" fill="#FFFFFF" transform="translate(0,0)"/>
<path d="" fill="#FFFFFF" transform="translate(0,0)"/>
</svg>
